
        <svg xmlns="http://www.w3.org/2000/svg" xmlns:xlink="http://www.w3.org/1999/xlink" version="1.1" width="3166.6666666666665" 
        height="1025" viewBox="0 0 3166.6666666666665 1025">
			<rect fill="#2e4149" width="3166.6666666666665" height="1025"/>
			<g transform="scale(8.333333333333334) translate(10, 10)">
				<defs id="SvgjsDefs5033"><linearGradient id="SvgjsLinearGradient5040"><stop id="SvgjsStop5041" stop-color="#8f5e25" offset="0"></stop><stop id="SvgjsStop5042" stop-color="#fbf4a1" offset="0.5"></stop><stop id="SvgjsStop5043" stop-color="#8f5e25" offset="1"></stop></linearGradient><linearGradient id="SvgjsLinearGradient5044"><stop id="SvgjsStop5045" stop-color="#8f5e25" offset="0"></stop><stop id="SvgjsStop5046" stop-color="#fbf4a1" offset="0.5"></stop><stop id="SvgjsStop5047" stop-color="#8f5e25" offset="1"></stop></linearGradient></defs><g id="SvgjsG5034" featureKey="rootContainer" transform="matrix(1,0,0,1,0,0)" fill="#ffffff"><rect xmlns="http://www.w3.org/2000/svg" width="360" height="103" rx="10" ry="10"></rect></g><g id="SvgjsG5035" featureKey="symbolFeature-0" transform="matrix(1.3280211687088013,0,0,1.3280211687088013,3.532535161578007,-15.759614100579526)" fill="url(#SvgjsLinearGradient5040)"><g xmlns="http://www.w3.org/2000/svg"><path d="M28,57.3l0.8-1.2l1.5-2.3L38,71.1c0.5,1.2,1.6,2.2,2.9,2.7c2.6,0.9,5.5-0.5,6.4-3.1l8.6-24.5l6.5,16.5   c0.3,0.7,0.8,1.4,1.4,2c2.1,1.8,5.3,1.6,7.1-0.5l6-7l10.8-3.8l-14.1-5c-1-0.4-2.2-0.1-3,0.8l-0.8,0.9l-1.1,1.3l-8.4-21.3   c-0.5-1.3-1.6-2.4-3-2.9c-2.6-0.9-5.5,0.5-6.4,3.1L42,55.6l-6.3-14.1c-0.4-0.8-1-1.6-1.8-2.1c-2.3-1.5-5.4-0.9-6.9,1.4l-6,9.2   l-8.6,3.5l12.3,5C25.9,58.8,27.3,58.4,28,57.3z"></path></g></g><g id="SvgjsG5036" featureKey="nameFeature-0" transform="matrix(0.7961422801017761,0,0,0.7961422801017761,138.9271432623927,32.39150948811329)" fill="url(#SvgjsLinearGradient5044)"><path d="M10.918 33.7891 l-0.019531 -0.039063 c1.7383 0 3.1836 -1.4453 3.1836 -3.1836 c0 -1.3477 -0.52734 -2.207 -1.6016 -2.5977 c-2.2656 -0.83984 -1.7188 -0.64453 -3.9258 -1.4063 c-2.3242 -0.80078 -4.4727 -2.3828 -5.918 -4.3555 c-0.85938 -1.1719 -1.2891 -2.6172 -1.2891 -4.3555 c0 -2.6172 0.9375 -4.8633 2.8125 -6.7383 s4.1211 -2.8125 6.7578 -2.8125 c2.6172 0 4.8633 0.9375 6.7383 2.8125 s2.8125 4.1211 2.8125 6.7383 l-6.3477 0 c0 -1.7188 -1.4453 -3.1641 -3.1641 -3.1641 c-1.7383 0 -3.1836 1.4453 -3.1836 3.1836 c0 1.1328 0.44922 1.9922 1.3672 2.5781 c1.875 1.2109 1.6602 0.97656 3.9063 1.6406 c2.4219 0.70313 4.6094 2.207 6.1133 4.1406 c0.87891 1.1328 1.3281 2.5977 1.3281 4.375 c0 2.6367 -0.9375 4.8828 -2.8125 6.7578 s-4.1211 2.8125 -6.7383 2.8125 c-2.6367 0 -4.8828 -0.9375 -6.7578 -2.8125 s-2.8125 -4.1211 -2.8125 -6.7578 l6.3672 0 c0 1.7578 1.4258 3.1836 3.1836 3.1836 z M23.37890625 40 l0 -9.4531 l0 -11.016 l0 -11.016 l6.3086 0 l4.707 0 c3.0273 0 5.625 1.0742 7.793 3.2422 s3.2422 4.7656 3.2422 7.793 s-1.0742 5.625 -3.2422 7.7734 s-4.7656 3.2227 -7.793 3.2227 l-4.707 0 l0 9.4531 l-6.3086 0 z M29.68750625 24.258 l4.707 0.019531 c1.3086 0 2.4219 -0.46875 3.3398 -1.3867 s1.3867 -2.0313 1.3867 -3.3398 c0 -1.2891 -0.46875 -2.4023 -1.3867 -3.3398 s-2.0313 -1.4063 -3.3398 -1.4063 l-4.707 0 l0 4.7266 l0 4.7266 z M63.2815625 8.359000000000002 c4.375 0 8.125 1.5625 11.25 4.6875 s4.6875 6.875 4.6875 11.25 s-1.5625 8.125 -4.6875 11.23 s-6.875 4.668 -11.25 4.668 s-8.125 -1.5625 -11.23 -4.668 s-4.668 -6.8555 -4.668 -11.23 s1.5625 -8.125 4.668 -11.25 s6.8555 -4.6875 11.23 -4.6875 z M63.2815625 14.707 c-2.6367 0 -4.8828 0.9375 -6.7383 2.8125 s-2.793 4.1211 -2.793 6.7383 c0 2.6367 0.9375 4.8828 2.793 6.7383 s4.1016 2.793 6.7383 2.793 c2.6172 0 4.8633 -0.9375 6.7383 -2.793 s2.8125 -4.1016 2.8125 -6.7383 c0 -2.6172 -0.9375 -4.8633 -2.8125 -6.7383 s-4.1211 -2.8125 -6.7383 -2.8125 z M81.5234375 40 l-0.019531 -31.523 l10.234 0 c3.0273 0 6.0156 1.0547 8.1836 3.2227 s3.0469 4.1992 3.0469 7.2266 l0 0.97656 c0 2.3438 -0.66406 4.0625 -1.9922 5.9375 s-2.4414 2.4219 -4.5117 3.2031 l7.1094 10.957 l-7.6953 0 l-8.0469 -12.305 l0 12.305 l-6.3086 0 z M87.8125375 23.633 l4.5117 0.019531 c1.3086 0 1.9727 -0.33203 2.8906 -1.25 s1.25 -1.9727 1.25 -3.2813 c0 -1.2891 -0.33203 -2.1484 -1.25 -3.0859 s-2.5586 -1.2695 -3.8672 -1.2695 l-3.5352 0 l0 8.8672 z M113.98440625 8.515999999999998 l6.3086 0 l7.8711 0 l0 6.2891 l-7.8711 0 l0 25.195 l-6.3086 0 l0 -25.195 l-7.8711 0 l0 -6.2891 l7.8711 0 z M150.4687875 8.613 l-0.019531 0 c4.2188 0 7.7539 3.4961 7.832 7.6758 c0 0.83984 -0.29297 1.8164 -0.54688 2.5977 c3.5938 1.5625 6.8164 5.1172 6.8164 10.098 c0 3.0078 -1.0742 5.5859 -3.2227 7.7344 s-4.7266 3.2227 -7.7344 3.2227 l-10.957 0 l0 -31.328 l7.832 0 z M148.8866875 18.633 l1.5625 0 c1.0547 0 1.8945 -0.80078 1.8945 -1.8359 c0 -1.0547 -0.83984 -1.9336 -1.8945 -1.9336 l-1.5625 0 l0 3.7695 z M153.5746875 33.6719 c2.5781 0 4.707 -2.1094 4.707 -4.668 c0 -1.3086 -0.46875 -2.4219 -1.3867 -3.3398 s-2.0313 -0.97656 -3.3203 -0.97656 l-4.6875 0 l0 8.9844 l4.6875 0 z M166.9140625 8.515999999999998 l6.3086 0 l0 25.176 l12.578 0 l0 6.3086 l-18.887 0 l0 -31.484 z M203.26203125 8.359000000000002 c4.375 0 8.125 1.5625 11.25 4.6875 s4.6875 6.875 4.6875 11.25 s-1.5625 8.125 -4.6875 11.23 s-6.875 4.668 -11.25 4.668 s-8.125 -1.5625 -11.23 -4.668 s-4.668 -6.8555 -4.668 -11.23 s1.5625 -8.125 4.668 -11.25 s6.8555 -4.6875 11.23 -4.6875 z M203.26203125 14.707 c-2.6367 0 -4.8828 0.9375 -6.7383 2.8125 s-2.793 4.1211 -2.793 6.7383 c0 2.6367 0.9375 4.8828 2.793 6.7383 s4.1016 2.793 6.7383 2.793 c2.6172 0 4.8633 -0.9375 6.7383 -2.793 s2.8125 -4.1016 2.8125 -6.7383 c0 -2.6172 -0.9375 -4.8633 -2.8125 -6.7383 s-4.1211 -2.8125 -6.7383 -2.8125 z M236.62140625 8.359000000000002 l0.019531 0.058594 c2.1875 0 4.2383 0.41016 6.1719 1.25 s3.6328 1.9727 5.0977 3.3984 l-4.4922 4.4922 c-1.8945 -1.875 -4.1406 -2.8125 -6.7383 -2.8125 c-2.6367 0 -4.8828 0.9375 -6.7383 2.8125 s-2.793 4.1211 -2.793 6.7383 c0 2.6367 0.9375 4.8828 2.793 6.7383 s4.1016 2.793 6.7383 2.793 c2.0703 0 3.9258 -0.58594 5.5469 -1.7773 s2.7734 -2.7148 3.4375 -4.5703 l-9.0039 0 l0 -6.3477 l9.0039 0 l3.6914 0 l2.8906 0 c0.21484 0.99609 0.3125 2.0508 0.3125 3.1641 c0 4.375 -1.5625 8.125 -4.6875 11.23 s-6.875 4.668 -11.25 4.668 s-8.125 -1.5625 -11.23 -4.668 s-4.668 -6.8555 -4.668 -11.23 s1.5625 -8.125 4.668 -11.25 s6.8555 -4.6875 11.23 -4.6875 z"></path></g>
			</g>
		</svg>
	